<svg width="35" height="40" viewBox="0 0 35 40" fill="none" xmlns="http://www.w3.org/2000/svg">
<g clip-path="url(#clip0)">
<path d="M18.5584 14.3283C18.5582 14.4115 18.58 14.4932 18.6215 14.5652C18.6631 14.6372 18.7229 14.6969 18.795 14.7383L21.9 16.53C21.9726 16.5714 22.0548 16.5933 22.1384 16.5933C22.2214 16.5933 22.303 16.5714 22.375 16.53L25.46 14.7367C25.5674 14.6722 25.6451 14.568 25.6763 14.4467C25.7075 14.3254 25.6897 14.1966 25.6267 14.0883C25.586 14.0197 25.5287 13.9623 25.46 13.9217L22.355 12.1283C22.2828 12.0866 22.2009 12.0647 22.1175 12.0647C22.0341 12.0647 21.9522 12.0866 21.88 12.1283L18.795 13.92C18.7232 13.9613 18.6635 14.0208 18.6219 14.0924C18.5804 14.1641 18.5585 14.2455 18.5584 14.3283Z" fill="rgb(215, 218, 222)"/>
<path d="M30.2 16.6567L27.0933 14.8634C27.0212 14.8225 26.9396 14.801 26.8567 14.801C26.7737 14.801 26.6922 14.8225 26.62 14.8634L23.535 16.6567C23.4635 16.6985 23.4044 16.7585 23.3634 16.8304C23.3224 16.9024 23.3011 16.9839 23.3017 17.0667C23.3015 17.1498 23.3233 17.2315 23.3648 17.3035C23.4064 17.3755 23.4663 17.4353 23.5383 17.4767L26.57 19.23C26.6092 19.3025 26.6666 19.3634 26.7367 19.4067L28.7367 20.56L17.3583 27.1734L5.89333 20.555L7.97833 19.3417C8.05106 19.3387 8.12198 19.3181 8.185 19.2817L11.27 17.49C11.3235 17.4584 11.3703 17.4165 11.4076 17.3669C11.445 17.3172 11.4721 17.2606 11.4876 17.2004C11.5031 17.1402 11.5066 17.0775 11.4978 17.016C11.4891 16.9544 11.4683 16.8952 11.4367 16.8417C11.3961 16.7729 11.3388 16.7156 11.27 16.675L8.165 14.8717C8.0931 14.83 8.01146 14.808 7.92833 14.808C7.84521 14.808 7.76357 14.83 7.69167 14.8717L4.61167 16.6634C4.50393 16.7275 4.42594 16.8317 4.39472 16.9532C4.3635 17.0746 4.38157 17.2035 4.445 17.3117C4.48556 17.3805 4.5429 17.4378 4.61167 17.4784L6.95833 18.8334L4.70833 20.1417C4.60071 20.2056 4.52276 20.3094 4.49152 20.4306C4.46029 20.5518 4.47832 20.6804 4.54167 20.7884C4.58234 20.857 4.63966 20.9144 4.70833 20.955L6.975 22.2634L4.70833 23.58C4.6006 23.6442 4.52261 23.7484 4.49139 23.8698C4.46016 23.9913 4.47824 24.1202 4.54167 24.2284C4.58234 24.297 4.63966 24.3544 4.70833 24.395L17.1167 31.5617C17.1886 31.6034 17.2702 31.6252 17.3533 31.625C17.4366 31.6246 17.5182 31.6022 17.59 31.56L29.9133 24.3934C30.021 24.3295 30.0989 24.2256 30.1301 24.1044C30.1614 23.9832 30.1433 23.8546 30.08 23.7467C30.0392 23.6782 29.9819 23.6209 29.9133 23.58L27.6483 22.2717L29.915 20.955C30.0224 20.8905 30.1001 20.7864 30.1313 20.665C30.1625 20.5437 30.1447 20.415 30.0817 20.3067C30.0408 20.2382 29.9835 20.1809 29.915 20.14L27.7483 18.8917L30.1967 17.47C30.3043 17.4062 30.3822 17.3023 30.4135 17.1811C30.4447 17.0599 30.4267 16.9313 30.3633 16.8234C30.3234 16.7552 30.2673 16.698 30.2 16.6567ZM28.7367 24.005L17.3583 30.6184L5.895 24L7.925 22.8217L17.1217 28.1284C17.1936 28.1701 17.2752 28.192 17.3583 28.192C17.4415 28.192 17.5231 28.1701 17.595 28.1284L26.7133 22.8284C26.725 22.8367 26.7283 22.8467 26.7383 22.8517L28.7367 24.005Z" fill="rgb(215, 218, 222)"/>
<path d="M17.1817 19.2734C17.2539 19.3151 17.3358 19.337 17.4192 19.337C17.5026 19.337 17.5845 19.3151 17.6567 19.2734L20.74 17.48C20.7935 17.4486 20.8402 17.4069 20.8775 17.3573C20.9149 17.3078 20.942 17.2513 20.9575 17.1913C20.973 17.1312 20.9765 17.0687 20.9678 17.0073C20.959 16.9458 20.9383 16.8868 20.9067 16.8334C20.8659 16.7648 20.8086 16.7075 20.74 16.6667L17.635 14.8634C17.5629 14.8225 17.4813 14.801 17.3984 14.801C17.3154 14.801 17.2339 14.8225 17.1617 14.8634L14.0767 16.6567C13.9691 16.7206 13.8911 16.8244 13.8599 16.9456C13.8287 17.0668 13.8467 17.1954 13.91 17.3034C13.9509 17.3719 14.0082 17.4292 14.0767 17.47L17.1817 19.2734Z" fill="rgb(215, 218, 222)"/>
<path d="M22.165 22.075C22.2486 22.0749 22.3307 22.0531 22.4033 22.0117L25.4867 20.2183C25.5402 20.1867 25.587 20.1448 25.6243 20.0951C25.6616 20.0454 25.6888 19.9889 25.7043 19.9287C25.7198 19.8685 25.7232 19.8058 25.7145 19.7443C25.7057 19.6827 25.685 19.6235 25.6533 19.57C25.6128 19.5012 25.5554 19.4439 25.4867 19.4033L22.3817 17.61C22.3092 17.5691 22.2274 17.5476 22.1442 17.5476C22.061 17.5476 21.9792 17.5691 21.9067 17.61L18.8233 19.4033C18.7157 19.4672 18.6378 19.5711 18.6065 19.6922C18.5753 19.8134 18.5933 19.9421 18.6567 20.05C18.6975 20.1185 18.7548 20.1758 18.8233 20.2166L21.9283 22.01C22.0001 22.0522 22.0818 22.0747 22.165 22.075Z" fill="rgb(215, 218, 222)"/>
<path d="M12.4434 17.6083L9.35838 19.4017C9.25109 19.4658 9.17343 19.5697 9.14223 19.6908C9.11103 19.8118 9.12881 19.9403 9.19172 20.0483C9.23256 20.1169 9.28984 20.1742 9.35838 20.215L12.4634 22.0083C12.5353 22.05 12.6169 22.072 12.7 22.072C12.7832 22.072 12.8648 22.05 12.9367 22.0083L16.0217 20.215C16.0939 20.1737 16.1539 20.114 16.1954 20.042C16.237 19.9699 16.2587 19.8882 16.2584 19.805C16.2582 19.7219 16.2363 19.6404 16.1948 19.5684C16.1532 19.4965 16.0936 19.4367 16.0217 19.395L12.9167 17.6017C12.844 17.5618 12.7621 17.5414 12.6792 17.5426C12.5962 17.5438 12.515 17.5664 12.4434 17.6083Z" fill="rgb(215, 218, 222)"/>
<path d="M14.1017 22.9617L17.2067 24.7533C17.2786 24.795 17.3602 24.817 17.4433 24.817C17.5265 24.817 17.6081 24.795 17.68 24.7533L20.765 22.9617C20.8727 22.8975 20.9507 22.7933 20.982 22.6719C21.0132 22.5504 20.9951 22.4215 20.9317 22.3133C20.8914 22.2443 20.834 22.1869 20.765 22.1467L17.665 20.3483C17.5931 20.3066 17.5115 20.2847 17.4283 20.2847C17.3452 20.2847 17.2636 20.3066 17.1917 20.3483L14.1067 22.1417C13.999 22.2055 13.9211 22.3094 13.8899 22.4306C13.8586 22.5518 13.8767 22.6804 13.94 22.7883C13.9786 22.8587 14.0341 22.9183 14.1017 22.9617Z" fill="rgb(215, 218, 222)"/>
<path d="M9.33164 14.7416L12.4383 16.53C12.5105 16.5717 12.5924 16.5936 12.6758 16.5936C12.7592 16.5936 12.8411 16.5717 12.9133 16.53L15.9966 14.7383C16.1044 14.6741 16.1824 14.57 16.2136 14.4485C16.2448 14.327 16.2267 14.1982 16.1633 14.09C16.1225 14.0214 16.0652 13.9642 15.9966 13.9233L12.8916 12.13C12.8194 12.0883 12.7375 12.0663 12.6541 12.0663C12.5708 12.0663 12.4889 12.0883 12.4166 12.13L9.33164 13.9216C9.22402 13.9855 9.14607 14.0894 9.11483 14.2106C9.0836 14.3318 9.10163 14.4604 9.16498 14.5683C9.20493 14.6393 9.26228 14.6989 9.33164 14.7416Z" fill="rgb(215, 218, 222)"/>
<path d="M14.05 12L17.155 13.7933C17.2272 13.835 17.3091 13.857 17.3925 13.857C17.4759 13.857 17.5578 13.835 17.63 13.7933L20.715 12C20.7685 11.9685 20.8152 11.9268 20.8525 11.8773C20.8898 11.8277 20.917 11.7713 20.9325 11.7112C20.948 11.6512 20.9515 11.5886 20.9428 11.5272C20.934 11.4658 20.9133 11.4067 20.8817 11.3533C20.8419 11.284 20.7844 11.2265 20.715 11.1867L17.6084 9.39332C17.5365 9.35162 17.4548 9.32965 17.3717 9.32965C17.2886 9.32965 17.2069 9.35162 17.135 9.39332L14.05 11.18C13.9424 11.2439 13.8645 11.3477 13.8332 11.4689C13.802 11.5901 13.82 11.7187 13.8834 11.8267C13.9233 11.8976 13.9807 11.9573 14.05 12Z" fill="rgb(215, 218, 222)"/>
<path d="M34.4567 9.70713L17.7083 0.103797C17.5894 0.0353544 17.4547 -0.000671387 17.3175 -0.000671387C17.1803 -0.000671387 17.0455 0.0353544 16.9267 0.103797L0.388333 9.72046C0.270255 9.78922 0.172262 9.88772 0.104125 10.0062C0.0359876 10.1246 8.63067e-05 10.2588 0 10.3955V29.6038C0.000129142 29.7407 0.0360337 29.8751 0.104152 29.9938C0.172271 30.1125 0.270237 30.2113 0.388333 30.2805L16.9267 39.8938C17.0455 39.9622 17.1803 39.9983 17.3175 39.9983C17.4547 39.9983 17.5894 39.9622 17.7083 39.8938L34.4567 30.2888C34.576 30.2203 34.6753 30.1215 34.7443 30.0024C34.8134 29.8833 34.8498 29.7481 34.85 29.6105V10.3871C34.8501 10.2492 34.8138 10.1137 34.7447 9.99426C34.6757 9.87486 34.5763 9.77581 34.4567 9.70713ZM31.5933 27.7271C31.5935 27.8649 31.5572 28.0002 31.4881 28.1193C31.419 28.2385 31.3196 28.3372 31.2 28.4055L17.72 36.1355C17.6012 36.2042 17.4664 36.2405 17.3292 36.2405C17.1919 36.2405 17.0571 36.2042 16.9383 36.1355L3.645 28.4071C3.5269 28.338 3.42894 28.2392 3.36082 28.1205C3.2927 28.0018 3.2568 27.8673 3.25667 27.7305V12.2705C3.25646 12.1335 3.29222 11.999 3.36038 11.8802C3.42853 11.7615 3.52668 11.6627 3.645 11.5938L16.9383 3.8638C17.0571 3.79503 17.1919 3.75882 17.3292 3.75882C17.4664 3.75882 17.6012 3.79503 17.72 3.8638L31.2 11.5938C31.3194 11.6623 31.4186 11.7611 31.4877 11.8802C31.5567 11.9993 31.5932 12.1345 31.5933 12.2721V27.7271Z" fill="rgb(215, 218, 222)"/>
</g>
<defs>
<clipPath id="clip0">
<rect width="34.85" height="40" fill="white"/>
</clipPath>
</defs>
</svg>
